<svg width="739" height="739" viewBox="0 0 739 739" fill="none" xmlns="http://www.w3.org/2000/svg">
<path d="M739 369.5C739 573.569 573.569 739 369.5 739C165.431 739 0 573.569 0 369.5C0 165.431 165.431 0 369.5 0C573.569 0 739 165.431 739 369.5Z" fill="#FFC779"/>
<path d="M67.752 371V281.4H75.56L106.408 327.608L136.872 281.4H144.936V371H136.872V295.096L108.584 338.232H104.232L75.688 295.096V371H67.752ZM198.246 372.152C192.273 372.237 187.409 370.872 183.654 368.056C179.985 365.24 178.15 361.144 178.15 355.768C178.15 351.672 179.515 348.088 182.246 345.016C185.062 341.944 188.603 339.555 192.87 337.848C197.222 336.056 201.702 335.16 206.31 335.16C212.625 335.16 217.617 336.653 221.286 339.64V329.144C221.286 323.427 220.091 319.715 217.702 318.008C215.313 316.216 211.473 315.32 206.182 315.32C202.769 315.32 198.971 315.96 194.79 317.24C190.609 318.435 187.067 319.971 184.166 321.848L180.454 315.704C183.782 313.571 187.793 311.779 192.486 310.328C197.265 308.877 201.83 308.152 206.182 308.152C213.947 308.152 219.665 309.645 223.334 312.632C227.003 315.619 228.838 321.123 228.838 329.144V363.064C228.838 364.685 229.265 365.624 230.118 365.88C231.057 366.051 233.062 365.837 236.134 365.24V370.744C235.281 371.085 234.129 371.384 232.678 371.64C231.227 371.981 229.862 372.152 228.582 372.152C225.681 372.152 223.803 371.555 222.95 370.36C222.097 369.165 221.585 366.904 221.414 363.576C218.769 366.477 215.27 368.611 210.918 369.976C206.566 371.341 202.342 372.067 198.246 372.152ZM198.63 365.112C202.726 365.027 206.523 364.387 210.022 363.192C213.606 361.997 216.422 360.291 218.47 358.072C220.603 355.768 221.585 352.995 221.414 349.752C221.158 347.107 219.707 345.144 217.062 343.864C214.417 342.499 211.003 341.859 206.822 341.944C203.323 341.944 199.953 342.541 196.71 343.736C193.467 344.931 190.822 346.595 188.774 348.728C186.811 350.776 185.83 353.165 185.83 355.896C185.83 359.053 187.025 361.4 189.414 362.936C191.803 364.387 194.875 365.112 198.63 365.112ZM287.063 372.408C281.602 372.408 277.506 371.256 274.775 368.952C272.044 366.648 270.679 362.509 270.679 356.536V316.856H257.367V309.688H270.679V287.16H278.359V309.688H297.047V316.856H278.359V355.256C278.359 359.096 279.17 361.741 280.791 363.192C282.412 364.557 284.93 365.24 288.343 365.24C289.794 365.24 291.33 365.027 292.951 364.6C294.572 364.173 295.938 363.704 297.047 363.192V370.744C295.852 371.171 294.316 371.555 292.439 371.896C290.562 372.237 288.77 372.408 287.063 372.408ZM351.953 372.408C346.492 372.408 342.396 371.256 339.665 368.952C336.934 366.648 335.569 362.509 335.569 356.536V316.856H322.257V309.688H335.569V287.16H343.249V309.688H361.937V316.856H343.249V355.256C343.249 359.096 344.06 361.741 345.681 363.192C347.302 364.557 349.82 365.24 353.233 365.24C354.684 365.24 356.22 365.027 357.841 364.6C359.462 364.173 360.828 363.704 361.937 363.192V370.744C360.742 371.171 359.206 371.555 357.329 371.896C355.452 372.237 353.66 372.408 351.953 372.408Z" fill="url(#paint0_linear_4_3)"/>
<path d="M67.752 477.941V388.341H93.736C101.16 388.341 107.603 389.536 113.064 391.925C118.525 394.229 123.005 397.472 126.504 401.653C130.088 405.749 132.733 410.528 134.44 415.989C136.232 421.365 137.128 427.082 137.128 433.141C137.128 439.2 136.232 444.96 134.44 450.421C132.733 455.797 130.088 460.576 126.504 464.757C123.005 468.853 118.525 472.096 113.064 474.485C107.603 476.789 101.16 477.941 93.736 477.941H67.752ZM75.56 470.389H93.352C101.8 470.389 108.627 468.682 113.832 465.269C119.123 461.77 122.963 457.205 125.352 451.573C127.827 445.856 129.064 439.712 129.064 433.141C129.064 426.485 127.827 420.341 125.352 414.709C122.963 408.992 119.123 404.426 113.832 401.013C108.627 397.514 101.8 395.765 93.352 395.765H75.56V470.389ZM194.325 479.349C188.778 479.349 183.829 478.069 179.477 475.509C175.21 472.864 171.84 469.152 169.365 464.373C166.976 459.509 165.781 453.792 165.781 447.221C165.781 440.821 166.976 435.232 169.365 430.453C171.84 425.674 175.21 421.962 179.477 419.317C183.744 416.586 188.608 415.221 194.069 415.221C199.616 415.221 204.309 416.629 208.149 419.445C212.074 422.176 215.061 425.76 217.109 430.197C219.157 434.549 220.181 439.157 220.181 444.021V446.581H173.589C173.418 454.261 175.21 460.49 178.965 465.269C182.805 469.962 187.968 472.309 194.453 472.309C199.232 472.309 203.242 471.114 206.485 468.725C209.728 466.25 212.373 462.624 214.421 457.845L220.821 461.557C215.36 473.418 206.528 479.349 194.325 479.349ZM174.101 439.925H212.501C212.074 436.597 211.008 433.568 209.301 430.837C207.68 428.106 205.546 425.93 202.901 424.309C200.341 422.688 197.397 421.877 194.069 421.877C188.864 421.877 184.469 423.498 180.885 426.741C177.386 429.898 175.125 434.293 174.101 439.925ZM268.934 477.941L244.742 416.629H252.806L272.134 466.805L290.95 416.629H298.758L275.462 477.941H268.934ZM351.23 479.349C345.683 479.349 340.734 478.069 336.382 475.509C332.115 472.864 328.745 469.152 326.27 464.373C323.881 459.509 322.686 453.792 322.686 447.221C322.686 440.821 323.881 435.232 326.27 430.453C328.745 425.674 332.115 421.962 336.382 419.317C340.649 416.586 345.513 415.221 350.974 415.221C356.521 415.221 361.214 416.629 365.054 419.445C368.979 422.176 371.966 425.76 374.014 430.197C376.062 434.549 377.086 439.157 377.086 444.021V446.581H330.494C330.323 454.261 332.115 460.49 335.87 465.269C339.71 469.962 344.873 472.309 351.358 472.309C356.137 472.309 360.147 471.114 363.39 468.725C366.633 466.25 369.278 462.624 371.326 457.845L377.726 461.557C372.265 473.418 363.433 479.349 351.23 479.349ZM331.006 439.925H369.406C368.979 436.597 367.913 433.568 366.206 430.837C364.585 428.106 362.451 425.93 359.806 424.309C357.246 422.688 354.302 421.877 350.974 421.877C345.769 421.877 341.374 423.498 337.79 426.741C334.291 429.898 332.03 434.293 331.006 439.925ZM409.907 477.941V385.525H417.715V477.941H409.907ZM478.382 479.349C472.921 479.349 468.057 477.984 463.79 475.253C459.523 472.522 456.153 468.768 453.678 463.989C451.203 459.125 449.966 453.536 449.966 447.221C449.966 440.906 451.203 435.36 453.678 430.581C456.153 425.717 459.523 421.92 463.79 419.189C468.057 416.458 472.921 415.093 478.382 415.093C483.929 415.093 488.835 416.458 493.102 419.189C497.369 421.92 500.739 425.717 503.214 430.581C505.689 435.36 506.926 440.906 506.926 447.221C506.926 453.536 505.689 459.125 503.214 463.989C500.739 468.768 497.369 472.522 493.102 475.253C488.835 477.984 483.929 479.349 478.382 479.349ZM478.382 472.053C482.393 472.053 485.934 471.029 489.006 468.981C492.163 466.933 494.638 464.074 496.43 460.405C498.222 456.65 499.118 452.256 499.118 447.221C499.118 442.186 498.222 437.834 496.43 434.165C494.638 430.41 492.163 427.509 489.006 425.461C485.934 423.413 482.393 422.389 478.382 422.389C472.409 422.389 467.459 424.65 463.534 429.173C459.694 433.61 457.774 439.626 457.774 447.221C457.774 454.73 459.694 460.746 463.534 465.269C467.459 469.792 472.409 472.053 478.382 472.053ZM539.062 504.565V416.629H546.23L546.486 427.765C548.705 423.754 551.649 420.64 555.318 418.421C558.987 416.202 563.169 415.093 567.862 415.093C573.323 415.093 578.187 416.458 582.454 419.189C586.721 421.834 590.049 425.589 592.438 430.453C594.913 435.232 596.15 440.821 596.15 447.221C596.15 453.621 594.913 459.253 592.438 464.117C590.049 468.896 586.721 472.65 582.454 475.381C578.187 478.026 573.323 479.349 567.862 479.349C563.254 479.349 559.158 478.24 555.574 476.021C551.99 473.802 549.089 470.816 546.87 467.061V504.565H539.062ZM567.734 472.053C571.745 472.053 575.286 471.029 578.358 468.981C581.515 466.933 583.99 464.074 585.782 460.405C587.574 456.65 588.47 452.256 588.47 447.221C588.47 442.186 587.574 437.834 585.782 434.165C583.99 430.41 581.515 427.509 578.358 425.461C575.286 423.413 571.745 422.389 567.734 422.389C561.675 422.389 556.683 424.65 552.758 429.173C548.833 433.61 546.87 439.626 546.87 447.221C546.87 454.73 548.833 460.746 552.758 465.269C556.683 469.792 561.675 472.053 567.734 472.053ZM649.444 479.349C643.983 479.349 639.033 478.282 634.596 476.149C630.159 474.016 626.575 470.986 623.844 467.061L629.476 462.325C631.524 465.482 634.297 467.914 637.796 469.621C641.38 471.328 645.348 472.181 649.7 472.181C653.881 472.181 657.423 471.285 660.324 469.493C663.311 467.616 664.804 464.714 664.804 460.789C664.804 457.29 663.396 454.858 660.58 453.493C657.764 452.128 653.455 450.848 647.652 449.653C644.068 448.885 640.655 447.946 637.412 446.837C634.255 445.728 631.695 444.064 629.732 441.845C627.769 439.541 626.788 436.384 626.788 432.373C626.788 428.704 627.769 425.589 629.732 423.029C631.78 420.469 634.468 418.506 637.796 417.141C641.124 415.776 644.665 415.093 648.42 415.093C658.489 415.093 665.871 418.677 670.564 425.845L665.316 430.581C661.817 425.034 656.228 422.261 648.548 422.261C644.111 422.261 640.697 423.242 638.308 425.205C635.919 427.082 634.724 429.429 634.724 432.245C634.724 435.402 636.004 437.664 638.564 439.029C641.209 440.309 645.263 441.546 650.724 442.741C654.564 443.594 658.148 444.661 661.476 445.941C664.889 447.221 667.62 449.013 669.668 451.317C671.716 453.621 672.74 456.821 672.74 460.917C672.74 466.378 670.607 470.816 666.34 474.229C662.159 477.642 656.527 479.349 649.444 479.349Z" fill="url(#paint1_linear_4_3)"/>
<defs>
<linearGradient id="paint0_linear_4_3" x1="213.376" y1="223" x2="213.376" y2="409.642" gradientUnits="userSpaceOnUse">
<stop stop-color="#025380"/>
<stop offset="0.16" stop-color="#01273B"/>
<stop offset="0.475" stop-color="#0369A1"/>
<stop offset="0.9998" stop-color="#012E46"/>
<stop offset="0.9999" stop-color="#F3F5F5"/>
</linearGradient>
<linearGradient id="paint1_linear_4_3" x1="370.257" y1="329.941" x2="370.257" y2="516.584" gradientUnits="userSpaceOnUse">
<stop stop-color="#025380"/>
<stop offset="0.16" stop-color="#01273B"/>
<stop offset="0.475" stop-color="#0369A1"/>
<stop offset="0.9998" stop-color="#012E46"/>
<stop offset="0.9999" stop-color="#F3F5F5"/>
</linearGradient>
</defs>
</svg>
